<?xml version="1.0" encoding="utf-8"?>
<!-- Generator: Adobe Illustrator 28.0.0, SVG Export Plug-In . SVG Version: 6.00 Build 0)  -->
<svg version="1.1" id="Слой_1" xmlns="http://www.w3.org/2000/svg" xmlns:xlink="http://www.w3.org/1999/xlink" x="0px" y="0px"
	 viewBox="0 0 1000 311.4532471" enable-background="new 0 0 1000 311.4532471" xml:space="preserve">
<path fill="#000001" d="M754.1171875,311.444519c-30.4161377,0.1135254-59.6339722-11.848938-81.2373047-33.260376
	c-44.362915-43.6734772-44.921875-115.0411224-1.2483521-159.4040833c0.4128418-0.4193878,0.8289795-0.8355331,1.2483521-1.2484055
	c45.2143555-44.736969,118.1343384-44.3499756,162.8712769,0.8643799
	c20.9603271,21.18396,32.8931885,49.6679535,33.2909546,79.466217c-0.0081787,4.1046143-0.2439575,8.2056122-0.7061768,12.2841187
	H692.8971558c4.5159302,31.3735809,31.1234741,54.8384857,62.8154907,55.3961945
	c23.3327637-0.2777405,44.6320801-13.3345184,55.4659424-34.0014343l49.4852295,8.7183228
	c-8.4989014,20.7914429-22.9592285,38.6036377-41.5602417,51.1939697
	C799.9492798,304.5102234,777.2983398,311.4780884,754.1171875,311.444519z M755.7039185,131.4112396
	c-13.0375977,0.00177-25.7354126,4.1580505-36.2507324,11.8656311
	c-10.4995117,7.6699219-18.5174561,18.2523651-23.0599976,30.4356537h118.5692139
	c-4.5576172-12.1774445-12.5761108-22.7566681-23.0687256-30.4356537
	c-10.4923706-7.6996765-23.1665649-11.8531494-36.1810303-11.8569183L755.7039185,131.4112396z"/>
<path fill="#000001" d="M549.6900635,307.3469238h58.6655884V89.0227661h-58.6655884V307.3469238z"/>
<path fill="#000001" d="M579.0272217,0c-18.1763306,0.1055296-32.8255615,14.9258814-32.7200317,33.1021805
	c0.000061,0.0091438,0.0001221,0.0182915,0.0001831,0.0274353c-0.067627,18.143837,14.5760498,32.9123611,32.7198486,32.9988403
	c18.2608643-0.2965088,32.8238525-15.340229,32.5273438-33.6011009C611.2648315,14.6843767,596.8701782,0.2897199,579.0272217,0"/>
<path fill="#000001" d="M190.6086273,19.0233727v117.531662H64.131958V19.0233727H0v288.1404724h64.131958V189.6321716h126.4766693
	v117.5316772h64.1755524V19.0233727H190.6086273"/>
<path fill="#000001" d="M396.9450989,311.4532471c-62.7032776-0.5493774-113.0889282-51.8258057-112.5395508-114.529068
	c0.5426025-61.9277344,50.6118164-111.9969635,112.5395508-112.539566
	c20.6276245-0.0052414,40.8562317,5.6847153,58.4563293,16.4427567V89.1273804h55.893158v218.0364685h-57.2357483v-11.3338318
	C436.7617188,306.0541687,417.0379639,311.4495239,396.9450989,311.4532471z M399.79599,132.2481842
	c-36.2665405,0.0192719-65.6507568,29.4347229-65.6315002,65.7012634
	c0.0192871,36.2665405,29.4347229,65.6507721,65.7012634,65.631485
	c36.2460938-0.0192261,65.6218872-29.4028015,65.6315002-65.6489105
	C465.4635925,161.6629791,436.065033,132.2722168,399.79599,132.2481842z"/>
<path fill="#000001" d="M990.3139648,68.7352295c-55.2354126,10.2059021-95.418396,58.2322388-95.7184448,114.4017944v124.227356
	h56.1546631V180.7830811C950.638855,152.2883606,971.7437744,128.160965,1000,124.4801712L990.3139648,68.7352295"/>
</svg>
