<?xml version="1.0" encoding="utf-8"?>
<!-- Generator: Adobe Illustrator 28.0.0, SVG Export Plug-In . SVG Version: 6.00 Build 0)  -->
<svg version="1.1" id="Слой_1" xmlns="http://www.w3.org/2000/svg" xmlns:xlink="http://www.w3.org/1999/xlink" x="0px" y="0px"
	 viewBox="0 0 1000 163.1827393" enable-background="new 0 0 1000 163.1827393" xml:space="preserve">
<path fill="#00B3AC" d="M655.3504028,84.7106934l-4.9039917,76.7342987h46.166687l4.9535522-77.9390259
	c2.2072754-35.402504-22.8327637-38.019043-39.3959351-39.7364731c-1.109314-0.1186028-9.9073486-0.8187904-21.9606323-0.8187904
	c-3.1213989,0-6.4454956,0.0422592-9.9072876,0.1606293c-28.7275391,0.9754524-64.038147,5.0418587-64.3978271,5.1067657
	l-0.8185425,0.1263084l-7.2412109,113.1005859h46.3464966l5.6383667-91.8094482c0,0,18.8087158-2.4099121,29.4006958-1.7863007
	c10.5959473,0.6158981,16.9266968,3.9169846,16.104187,16.2343369"/>
<path fill="#00B3AC" d="M136.5262299,0h-0.9983826l-0.0727386,0.9985658l-4.2880249,55.2363091H58.7325439l3.5689621-45.9755859
	C62.416256,0.3749583,54.0466423,0,49.8848038,0h-3.4006271h0.0152931H13.5145206h-0.9983616l-0.0765209,0.9985658
	L0.0918134,159.7455444L0,160.9082336h1.1628727h48.4311981h1.0060387l0.076519-1.0020599l5.4509354-70.1087952h72.4268341
	l-5.4318161,69.9481659l-0.0994568,1.1626892h1.1743698h48.2552795h0.9983826l0.0726776-1.0020599L185.8525085,1.1591955
	L185.9443207,0h-1.1666565H136.5262299z"/>
<polygon fill="#00B3AC" points="202.5841522,43.8278618 201.5895538,43.8278618 201.513031,44.8264275 192.5964508,160.9068451 
	192.496994,160.9068451 193.667511,160.9068451 241.0200043,160.9068451 242.0260315,160.9068451 242.0987091,160.9068451 
	250.9847565,44.9907951 251.0688782,43.8278618 249.9098511,43.8278618 "/>
<path fill="#00B3AC" d="M243.4914856,0h-37.3495483h-0.9983978l-0.0765228,1.1591955l-2.1535492,28.3754253l-0.088028,1.1629314
	h1.1667328h47.3104095h1.0060272l0.065033-1.0097733c0,0,1.2010956-16.4829903,1.3885803-19.4284897
	C254.198288,3.3778932,251.4402771,0,243.4914856,0"/>
<path fill="#00B3AC" d="M351.9700012,91.3632812l-17.6993713-7.4207153
	c-12.3899231-4.9729843-21.7425537-8.6413193-20.1130371-13.7555542c0.9180603-2.8728943,6.6023254-4.7740631,23.58255-4.7740631
	c15.2970886,0,32.311676,1.8591461,52.0230713,5.5466232l1.1322937,0.2066269l0.1109009-1.120903l2.1574707-22.1479912
	l0.1032715-0.9868927l-1.0021973-0.1951828c-7.6619568-1.4841919-28.2646484-4.9727516-53.7138977-5.5083389
	c-1.7519226-0.0305862-3.4962463-0.0534668-5.2060852-0.0534668c-9.7772827,0-18.9655151,0.5890541-27.3045044,1.7251358
	c-15.7867126,2.1843758-42.4638367,9.1271782-43.7874146,31.1451225
	c-1.37323,22.5535278,25.5907898,32.4072723,42.0661011,39.2506104l13.6598816,5.4126205
	c15.5724792,6.2428436,22.9590149,8.5189743,22.6453247,13.128212c-0.2983704,4.3762207-6.2083435,5.4740143-20.2354736,5.4740143
	c-1.7481384,0-3.5842285-0.0231171-5.4968567-0.0611725c-17.7184753-0.3786926-42.7316284-4.062439-52.0727844-5.6689606
	l-1.1552429-0.1989288l-0.0688782,1.1512604l-1.5109558,23.949707l-0.0726929,0.9868927l1.0098877,0.1608582
	c0.187439,0.034317,18.7780457,2.9644165,58.3461914,4.0470276c2.3372498,0.0574341,4.6667786,0.0880127,6.9848938,0.0880127
	c28.8039551,0,63.9233704-4.49086,67.7753906-28.4902802C397.6585388,111.2659531,374.5196838,101.4505005,351.9700012,91.3632812"
	/>
<path fill="#00B3AC" d="M548.3262329,111.7296371c9.9263916-56.376358-40.0578003-67.3584824-51.7706299-69.1333466
	c-4.3339844-0.5699081-8.9739685-0.9486046-14.0232849-1.0405922l-0.5584717,0.0114403
	c-49.7203369,0.9142838-69.2634583,26.4247513-76.9291992,45.0841827
	c-0.5661011,1.4192886-2.4289856,6.4686127-3.2361145,12.5200119c-0.0880127,0.7879715-0.1721191,1.5836487-0.244873,2.4367599
	c-0.0343628,0.382431-0.0611572,0.7611237-0.0802917,1.1437912c-1.1131592,17.2632523,3.6722412,46.296608,45.4360657,56.2804031
	c2.295105,0.5278778,4.655304,1.0214386,7.1837463,1.4384308c8.6259155,1.2890015,15.3315735,2.7120209,32.0133667,2.7120209
	c28.3449402,0,46.5415955-4.1656342,54.2991638-6.4072113c0.8223877-5.221405,2.5016479-15.9091187,3.8060303-24.1334534
	c-3.8251953,0.8531189-26.9295654,5.7798767-52.1034241,5.7798767c-0.799469,0-1.5491943-0.034317-2.3180847-0.0420227
	c-35.0429077-1.2009888-42.0162964-18.395607-42.0660095-26.2830429c0,0-0.019165-0.1454544-0.0382385-0.3672485H548.3262329z
	 M449.6506653,89.6119995c2.1956482-12.3325348,11.7128601-24.8256989,31.9024048-24.9594727
	c29.4121704,0.248642,27.476593,24.9594727,27.476593,24.9594727H449.6506653z"/>
<path fill="#00B3AC" d="M802.348999,91.3632812l-17.7108765-7.4207153
	c-12.3822632-4.9729843-21.7310791-8.6413193-20.1015625-13.7555542c0.9141846-2.8728943,6.6061401-4.7740631,23.5825806-4.7740631
	c15.2932129,0,32.3154907,1.8591461,52.0230103,5.5466232l1.128479,0.2066269l0.1185913-1.120903l2.1535645-22.1479912
	l0.0956421-0.9868927l-0.9945068-0.1951828c-7.6696167-1.4841919-28.2646484-4.9727516-53.7062378-5.5083389
	c-1.7595825-0.0305862-3.5076904-0.0534668-5.2138062-0.0534668c-9.7772827,0-18.9655151,0.5890541-27.3045044,1.7251358
	c-15.7943726,2.1843758-42.4676514,9.1271782-43.7911987,31.1451225
	c-1.373291,22.5535278,25.5908203,32.4072723,42.0699463,39.2506104l13.6483765,5.4126205
	c15.5801392,6.2428436,22.9666748,8.5189743,22.6530151,13.128212c-0.2945557,4.3762207-6.2084351,5.4740143-20.2277832,5.4740143
	c-1.7481689,0-3.5842896-0.0231171-5.5007935-0.0611725c-17.7069702-0.3786926-42.7315674-4.062439-52.0727539-5.6689606
	l-1.147644-0.1989288l-0.0802612,1.1512604l-1.5109253,23.949707l-0.0689087,0.9868927l1.0136108,0.1608582
	c0.1760864,0.034317,18.7780762,2.9644165,58.3463135,4.0470276c2.3294678,0.0574341,4.6629639,0.0880127,6.980957,0.0880127
	c28.8039551,0,63.9234009-4.49086,67.7754517-28.4902802C848.0374756,111.2659531,824.8947754,101.4505005,802.348999,91.3632812"/>
<path fill="#00B3AC" d="M998.7039795,111.7296371c9.9264526-56.376358-40.0540161-67.3584824-51.7706299-69.1333466
	c-4.3301392-0.5699081-8.9701538-0.9486046-14.0195312-1.0405922l-0.5623169,0.0114403
	c-49.7163696,0.9142838-69.2633667,26.4247513-76.9291382,45.0841827c-0.5698853,1.4192886-2.4290161,6.4686127-3.236145,12.5200119
	c-0.0917358,0.7879715-0.1720581,1.5836487-0.244812,2.4367599c-0.0305786,0.382431-0.0611572,0.7611237-0.0764771,1.1437912
	c-1.1169434,17.2632523,3.668335,46.296608,45.4321899,56.2804031c2.2913208,0.5278778,4.6630859,1.0214386,7.1914673,1.4384308
	c8.6220703,1.2890015,15.3277588,2.7120209,32.0018311,2.7120209c28.3488159,0,46.5531006-4.1656342,54.3106079-6.4072113
	c0.8186646-5.221405,2.4940796-15.9091187,3.7984619-24.1334534c-3.8251953,0.8531189-26.9296265,5.7798767-52.0995483,5.7798767
	c-0.7995605,0-1.5492554-0.034317-2.3257446-0.0420227c-35.0391235-1.2009888-42.0049438-18.395607-42.0584106-26.2830429
	c0,0-0.0229492-0.1454544-0.0344238-0.3672485H998.7039795z M900.0322876,89.6119995
	c2.1955566-12.3325348,11.7127686-24.8256989,31.9023438-24.9594727
	c29.4121704,0.248642,27.4765625,24.9594727,27.4765625,24.9594727H900.0322876z"/>
</svg>
