<svg xmlns="http://www.w3.org/2000/svg" width="1200" height="900" viewBox="0 0 1200 900" role="img" aria-labelledby="title desc">
  <title id="title">Helium recovery module placeholder</title>
  <desc id="desc">Placeholder illustration of helium recovery tanks, compressor, and monitoring module.</desc>
  <rect width="1200" height="900" fill="#ffffff"/>
  <rect x="92" y="688" width="1016" height="80" rx="12" fill="#cbd5e1"/>
  <path d="M174 244h188v444H174z" rx="78" fill="#eff6ff" stroke="#1b3a6b" stroke-width="12"/>
  <path d="M438 196h228v492H438z" rx="88" fill="#f8fafc" stroke="#1b3a6b" stroke-width="12"/>
  <path d="M746 344h280v344H746z" rx="18" fill="#f8fafc" stroke="#0f172a" stroke-width="10"/>
  <path d="M790 390h192v82H790z" rx="8" fill="#1b3a6b"/>
  <path d="M228 688h80v74h-80zM512 688h80v74h-80zM826 688h90v74h-90z" fill="#334155"/>
  <path d="M362 464h76M666 464h80" stroke="#f97316" stroke-width="16" stroke-linecap="round"/>
  <path d="M406 428l38 36-38 36M710 428l38 36-38 36" fill="none" stroke="#f97316" stroke-width="16" stroke-linecap="round" stroke-linejoin="round"/>
  <path d="M808 552h156" stroke="#94a3b8" stroke-width="16" stroke-linecap="round"/>
  <path d="M808 608h116" stroke="#94a3b8" stroke-width="16" stroke-linecap="round"/>
  <text x="600" y="118" text-anchor="middle" font-family="Arial, Helvetica, sans-serif" font-size="42" font-weight="700" fill="#0f172a">Helium Recovery Placeholder</text>
  <text x="600" y="172" text-anchor="middle" font-family="Arial, Helvetica, sans-serif" font-size="24" fill="#475569">Replace with recovery cabinet, tanks, or gas module photo</text>
</svg>
